<mxfile host="Electron" modified="2025-03-27T11:20:20.514Z" agent="Mozilla/5.0 (X11; Linux x86_64) AppleWebKit/537.36 (KHTML, like Gecko) draw.io/21.2.8 Chrome/112.0.5615.165 Electron/24.2.0 Safari/537.36" etag="_B3mexLRMbE-vN6jTfIP" version="21.2.8" type="device">
  <diagram name="PÃ¡gina-1" id="vGHErI6fy8PcarNLJAQY">
    <mxGraphModel dx="1967" dy="1867" grid="1" gridSize="10" guides="1" tooltips="1" connect="1" arrows="1" fold="1" page="1" pageScale="1" pageWidth="827" pageHeight="1169" math="0" shadow="0">
      <root>
        <mxCell id="0" />
        <mxCell id="1" parent="0" />
        <mxCell id="DwZK4eDAInmCo1NDJSXx-4" value="Cliente" style="shape=umlActor;verticalLabelPosition=bottom;verticalAlign=top;html=1;" vertex="1" parent="1">
          <mxGeometry x="-110" y="200" width="30" height="60" as="geometry" />
        </mxCell>
        <mxCell id="DwZK4eDAInmCo1NDJSXx-7" value="Registrar cliente" style="ellipse;whiteSpace=wrap;html=1;" vertex="1" parent="1">
          <mxGeometry x="150" y="120" width="140" height="70" as="geometry" />
        </mxCell>
        <mxCell id="DwZK4eDAInmCo1NDJSXx-10" value="" style="endArrow=none;html=1;rounded=0;exitX=1;exitY=0.3333333333333333;exitDx=0;exitDy=0;exitPerimeter=0;" edge="1" parent="1" source="DwZK4eDAInmCo1NDJSXx-4" target="DwZK4eDAInmCo1NDJSXx-7">
          <mxGeometry relative="1" as="geometry">
            <mxPoint x="-30" y="180" as="sourcePoint" />
            <mxPoint x="130" y="180" as="targetPoint" />
          </mxGeometry>
        </mxCell>
        <mxCell id="DwZK4eDAInmCo1NDJSXx-11" value="Listar servicios disponibles" style="ellipse;whiteSpace=wrap;html=1;" vertex="1" parent="1">
          <mxGeometry x="150" y="230" width="140" height="70" as="geometry" />
        </mxCell>
        <mxCell id="DwZK4eDAInmCo1NDJSXx-12" value="" style="endArrow=none;html=1;rounded=0;exitX=1;exitY=0.3333333333333333;exitDx=0;exitDy=0;exitPerimeter=0;" edge="1" parent="1" source="DwZK4eDAInmCo1NDJSXx-4" target="DwZK4eDAInmCo1NDJSXx-11">
          <mxGeometry relative="1" as="geometry">
            <mxPoint x="-20" y="260" as="sourcePoint" />
            <mxPoint x="140" y="260" as="targetPoint" />
          </mxGeometry>
        </mxCell>
        <mxCell id="DwZK4eDAInmCo1NDJSXx-13" value="Agendar cita" style="ellipse;whiteSpace=wrap;html=1;" vertex="1" parent="1">
          <mxGeometry x="150" y="350" width="140" height="70" as="geometry" />
        </mxCell>
        <mxCell id="DwZK4eDAInmCo1NDJSXx-14" value="" style="endArrow=none;html=1;rounded=0;exitX=1;exitY=0.3333333333333333;exitDx=0;exitDy=0;exitPerimeter=0;" edge="1" parent="1" source="DwZK4eDAInmCo1NDJSXx-4" target="DwZK4eDAInmCo1NDJSXx-13">
          <mxGeometry relative="1" as="geometry">
            <mxPoint x="90" y="210" as="sourcePoint" />
            <mxPoint x="250" y="210" as="targetPoint" />
          </mxGeometry>
        </mxCell>
        <mxCell id="DwZK4eDAInmCo1NDJSXx-15" value="Listar reservaciones" style="ellipse;whiteSpace=wrap;html=1;" vertex="1" parent="1">
          <mxGeometry x="150" y="480" width="140" height="70" as="geometry" />
        </mxCell>
        <mxCell id="DwZK4eDAInmCo1NDJSXx-16" value="" style="endArrow=none;html=1;rounded=0;exitX=1;exitY=0.3333333333333333;exitDx=0;exitDy=0;exitPerimeter=0;" edge="1" parent="1" source="DwZK4eDAInmCo1NDJSXx-4" target="DwZK4eDAInmCo1NDJSXx-15">
          <mxGeometry relative="1" as="geometry">
            <mxPoint x="-20" y="330" as="sourcePoint" />
            <mxPoint x="140" y="330" as="targetPoint" />
          </mxGeometry>
        </mxCell>
        <mxCell id="DwZK4eDAInmCo1NDJSXx-17" value="Listar citas finalizadas" style="ellipse;whiteSpace=wrap;html=1;" vertex="1" parent="1">
          <mxGeometry x="150" y="20" width="140" height="70" as="geometry" />
        </mxCell>
        <mxCell id="DwZK4eDAInmCo1NDJSXx-18" value="" style="endArrow=none;html=1;rounded=0;" edge="1" parent="1" target="DwZK4eDAInmCo1NDJSXx-17">
          <mxGeometry relative="1" as="geometry">
            <mxPoint x="-80" y="220" as="sourcePoint" />
            <mxPoint x="130" y="-30" as="targetPoint" />
          </mxGeometry>
        </mxCell>
        <mxCell id="DwZK4eDAInmCo1NDJSXx-19" value="Gestionar perfil" style="ellipse;whiteSpace=wrap;html=1;" vertex="1" parent="1">
          <mxGeometry x="150" y="-80" width="140" height="70" as="geometry" />
        </mxCell>
        <mxCell id="DwZK4eDAInmCo1NDJSXx-20" value="" style="endArrow=none;html=1;rounded=0;" edge="1" parent="1" target="DwZK4eDAInmCo1NDJSXx-19">
          <mxGeometry relative="1" as="geometry">
            <mxPoint x="-80" y="220" as="sourcePoint" />
            <mxPoint x="80" y="-10" as="targetPoint" />
          </mxGeometry>
        </mxCell>
        <mxCell id="DwZK4eDAInmCo1NDJSXx-23" value="" style="line;strokeWidth=1;fillColor=none;align=left;verticalAlign=middle;spacingTop=-1;spacingLeft=3;spacingRight=3;rotatable=0;labelPosition=right;points=[];portConstraint=eastwest;strokeColor=inherit;" vertex="1" parent="1">
          <mxGeometry y="-110" width="410" height="8" as="geometry" />
        </mxCell>
        <mxCell id="DwZK4eDAInmCo1NDJSXx-24" value="" style="line;strokeWidth=1;fillColor=none;align=left;verticalAlign=middle;spacingTop=-1;spacingLeft=3;spacingRight=3;rotatable=0;labelPosition=right;points=[];portConstraint=eastwest;strokeColor=inherit;" vertex="1" parent="1">
          <mxGeometry y="550" width="410" height="8" as="geometry" />
        </mxCell>
        <mxCell id="DwZK4eDAInmCo1NDJSXx-25" value="" style="endArrow=none;html=1;rounded=0;exitX=0.997;exitY=0.479;exitDx=0;exitDy=0;exitPerimeter=0;entryX=0.991;entryY=0.375;entryDx=0;entryDy=0;entryPerimeter=0;" edge="1" parent="1" source="DwZK4eDAInmCo1NDJSXx-24" target="DwZK4eDAInmCo1NDJSXx-23">
          <mxGeometry relative="1" as="geometry">
            <mxPoint x="360" y="40" as="sourcePoint" />
            <mxPoint x="520" y="40" as="targetPoint" />
          </mxGeometry>
        </mxCell>
        <mxCell id="DwZK4eDAInmCo1NDJSXx-26" value="" style="endArrow=none;html=1;rounded=0;exitX=0.001;exitY=0.375;exitDx=0;exitDy=0;exitPerimeter=0;entryX=0.003;entryY=0.896;entryDx=0;entryDy=0;entryPerimeter=0;" edge="1" parent="1" source="DwZK4eDAInmCo1NDJSXx-24" target="DwZK4eDAInmCo1NDJSXx-23">
          <mxGeometry relative="1" as="geometry">
            <mxPoint x="-50" y="-20" as="sourcePoint" />
            <mxPoint x="110" y="-20" as="targetPoint" />
          </mxGeometry>
        </mxCell>
        <mxCell id="DwZK4eDAInmCo1NDJSXx-27" value="Administrador" style="shape=umlActor;verticalLabelPosition=bottom;verticalAlign=top;html=1;" vertex="1" parent="1">
          <mxGeometry x="-100" y="920" width="30" height="60" as="geometry" />
        </mxCell>
        <mxCell id="DwZK4eDAInmCo1NDJSXx-30" value="Use Case" style="ellipse;whiteSpace=wrap;html=1;" vertex="1" parent="1">
          <mxGeometry x="90" y="1110" width="140" height="70" as="geometry" />
        </mxCell>
        <mxCell id="DwZK4eDAInmCo1NDJSXx-31" value="Dar de baja a empleado" style="ellipse;whiteSpace=wrap;html=1;" vertex="1" parent="1">
          <mxGeometry x="90" y="1010" width="140" height="70" as="geometry" />
        </mxCell>
        <mxCell id="DwZK4eDAInmCo1NDJSXx-32" value="Listar empleados" style="ellipse;whiteSpace=wrap;html=1;" vertex="1" parent="1">
          <mxGeometry x="100" y="910" width="140" height="70" as="geometry" />
        </mxCell>
        <mxCell id="DwZK4eDAInmCo1NDJSXx-33" value="&lt;div&gt;Registrar usuarios de marketing, de servicios y&lt;/div&gt;&lt;div&gt;administrador&lt;/div&gt;" style="ellipse;whiteSpace=wrap;html=1;" vertex="1" parent="1">
          <mxGeometry x="100" y="810" width="140" height="70" as="geometry" />
        </mxCell>
        <mxCell id="DwZK4eDAInmCo1NDJSXx-34" value="Registrar empleado" style="ellipse;whiteSpace=wrap;html=1;" vertex="1" parent="1">
          <mxGeometry x="100" y="720" width="140" height="70" as="geometry" />
        </mxCell>
        <mxCell id="DwZK4eDAInmCo1NDJSXx-35" value="Use" style="endArrow=open;endSize=12;dashed=1;html=1;rounded=0;" edge="1" parent="1">
          <mxGeometry width="160" relative="1" as="geometry">
            <mxPoint x="300" y="1050" as="sourcePoint" />
            <mxPoint x="460" y="1050" as="targetPoint" />
            <Array as="points">
              <mxPoint x="380" y="1050" />
            </Array>
          </mxGeometry>
        </mxCell>
        <mxCell id="DwZK4eDAInmCo1NDJSXx-36" value="Buscar empleado" style="ellipse;whiteSpace=wrap;html=1;" vertex="1" parent="1">
          <mxGeometry x="480" y="1070" width="140" height="70" as="geometry" />
        </mxCell>
      </root>
    </mxGraphModel>
  </diagram>
</mxfile>
